<svg width="24" height="25" viewBox="0 0 24 25" fill="none" xmlns="http://www.w3.org/2000/svg">
<path d="M20 11.8725H22C22 6.74253 18.127 2.87354 12.99 2.87354V4.87354C17.052 4.87354 20 7.81653 20 11.8725Z" fill="white"/>
<path d="M13 8.87377C15.103 8.87377 16 9.77077 16 11.8738H18C18 8.64877 16.225 6.87377 13 6.87377V8.87377ZM16.422 14.3168C16.2299 14.1421 15.9774 14.049 15.7178 14.057C15.4583 14.065 15.212 14.1736 15.031 14.3598L12.638 16.8208C12.062 16.7108 10.904 16.3498 9.71204 15.1608C8.52004 13.9678 8.15904 12.8068 8.05204 12.2348L10.511 9.84077C10.6975 9.6599 10.8062 9.4136 10.8142 9.15398C10.8222 8.89437 10.7289 8.64182 10.554 8.44977L6.85904 4.38677C6.68408 4.19413 6.44092 4.07728 6.18119 4.06103C5.92146 4.04479 5.66564 4.13043 5.46804 4.29977L3.29804 6.16077C3.12515 6.33429 3.02196 6.56522 3.00804 6.80977C2.99304 7.05977 2.70704 12.9818 7.29904 17.5758C11.305 21.5808 16.323 21.8738 17.705 21.8738C17.907 21.8738 18.031 21.8678 18.064 21.8658C18.3086 21.8521 18.5394 21.7484 18.712 21.5748L20.572 19.4038C20.7415 19.2063 20.8273 18.9505 20.8113 18.6908C20.7952 18.4311 20.6785 18.1879 20.486 18.0128L16.422 14.3168Z" fill="white"/>
</svg>
