<svg width="24" height="25" viewBox="0 0 24 25" fill="none" xmlns="http://www.w3.org/2000/svg">
<path d="M12 2.37354C9.81276 2.37612 7.71584 3.24614 6.16923 4.79275C4.62261 6.33937 3.75259 8.43629 3.75001 10.6235C3.74739 12.411 4.33124 14.1499 5.41201 15.5735C5.41201 15.5735 5.63701 15.8698 5.67376 15.9125L12 23.3735L18.3293 15.9088C18.3623 15.869 18.588 15.5735 18.588 15.5735L18.5888 15.5713C19.669 14.1482 20.2526 12.4101 20.25 10.6235C20.2474 8.43629 19.3774 6.33937 17.8308 4.79275C16.2842 3.24614 14.1873 2.37612 12 2.37354ZM12 13.6235C11.4067 13.6235 10.8266 13.4476 10.3333 13.1179C9.83995 12.7883 9.45543 12.3198 9.22837 11.7716C9.00131 11.2234 8.9419 10.6202 9.05765 10.0383C9.17341 9.45632 9.45913 8.92177 9.87869 8.50221C10.2982 8.08266 10.8328 7.79693 11.4147 7.68118C11.9967 7.56542 12.5999 7.62483 13.1481 7.8519C13.6962 8.07896 14.1648 8.46348 14.4944 8.95682C14.8241 9.45017 15 10.0302 15 10.6235C14.999 11.4189 14.6826 12.1814 14.1202 12.7438C13.5578 13.3062 12.7954 13.6225 12 13.6235Z" fill="white"/>
</svg>
