<svg width="18" height="24" viewBox="0 0 18 24" fill="none" xmlns="http://www.w3.org/2000/svg">
<path d="M15 18.7501C14.9016 18.7513 14.8041 18.7319 14.7137 18.6932C14.6233 18.6544 14.542 18.5972 14.475 18.5251L2.475 6.52511C2.175 6.22511 2.175 5.76011 2.475 5.46011C2.775 5.16011 3.24 5.16011 3.54 5.46011L15.525 17.4751C15.825 17.7751 15.825 18.2401 15.525 18.5401C15.375 18.6901 15.18 18.7651 15 18.7651V18.7501Z" fill="black"/>
<path d="M3 18.75C2.90164 18.7512 2.80411 18.7318 2.71369 18.6931C2.62328 18.6543 2.54197 18.5971 2.475 18.525C2.175 18.225 2.175 17.76 2.475 17.46L14.475 5.475C14.775 5.175 15.24 5.175 15.54 5.475C15.84 5.775 15.84 6.24 15.54 6.54L3.525 18.525C3.375 18.675 3.18 18.75 3 18.75Z" fill="black"/>
</svg>
