<svg width="107" height="97" viewBox="0 0 107 97" fill="none" xmlns="http://www.w3.org/2000/svg">
<path d="M23.7694 71.6148H16.4094C15.7 71.6147 14.9977 71.4737 14.3425 71.1999C13.6873 70.9261 13.0921 70.5248 12.591 70.0191L12.425 69.8379C11.5052 68.8288 10.9964 67.5078 11 66.1379V33.6947C11.0005 32.9786 11.1412 32.2696 11.4143 31.6083C11.6873 30.9471 12.0872 30.3466 12.591 29.8414L12.7639 29.6811C13.7568 28.7581 15.0583 28.2456 16.4094 28.2457H24.9246C24.8632 27.9055 24.8331 27.5603 24.8347 27.2144V14.672C24.835 13.9305 24.9814 13.1965 25.2651 12.5124C25.5489 11.8283 25.9645 11.2076 26.4879 10.6863C27.0033 10.1567 27.6177 9.73508 28.2956 9.44568C28.9734 9.15627 29.7015 9.00481 30.4377 9H76.5624C78.0491 9.00368 79.4739 9.60024 80.5252 10.6592C81.5764 11.7182 82.1687 13.1534 82.1723 14.6511V27.1935C82.1716 27.5396 82.1392 27.8848 82.0755 28.2248H90.5907C92.0207 28.2276 93.3914 28.8014 94.4021 29.8205C94.9054 30.3247 95.3051 30.924 95.5781 31.584C95.8511 32.244 95.9921 32.9518 95.9931 33.6668V66.1379C95.9895 67.5819 95.4184 68.9658 94.4047 69.9868C93.3911 71.0079 92.0173 71.5832 90.5838 71.5869H83.2307V85.739C83.2309 86.1635 83.1479 86.584 82.9864 86.9762C82.825 87.3684 82.5883 87.7246 82.2899 88.0245C82.2048 88.1088 82.1147 88.1879 82.0201 88.2614C81.4521 88.7165 80.7468 88.9624 80.021 88.9582H26.979C26.5575 88.9584 26.1402 88.8748 25.7508 88.7122C25.3615 88.5495 25.0078 88.3111 24.7101 88.0105C24.6243 87.9268 24.5456 87.8359 24.475 87.7388C24.0231 87.1666 23.7791 86.4561 23.7832 85.725V71.6148H23.7694ZM29.6768 28.2457H77.344L77.4754 28.1273C77.7172 27.8857 77.854 27.5574 77.8559 27.2144V14.672C77.8541 14.327 77.7172 13.9966 77.475 13.7526C77.2328 13.5087 76.9049 13.3708 76.5624 13.369H30.4377C30.0949 13.3698 29.7665 13.5076 29.5246 13.7522C29.2844 13.997 29.1501 14.3277 29.1511 14.672V27.2144C29.1513 27.3844 29.185 27.5526 29.2503 27.7093C29.3156 27.866 29.4112 28.0081 29.5315 28.1273L29.6629 28.2457H29.6768ZM36.1099 78.2135C35.6696 78.2135 35.2473 78.0373 34.936 77.7237C34.6246 77.41 34.4497 76.9847 34.4497 76.5412C34.4497 76.0976 34.6246 75.6723 34.936 75.3586C35.2473 75.045 35.6696 74.8688 36.1099 74.8688H55.0218C55.4621 74.8688 55.8844 75.045 56.1957 75.3586C56.5071 75.6723 56.682 76.0976 56.682 76.5412C56.682 76.9847 56.5071 77.41 56.1957 77.7237C55.8844 78.0373 55.4621 78.2135 55.0218 78.2135H36.1099ZM36.1099 68.068C35.6696 68.068 35.2473 67.8918 34.936 67.5782C34.6246 67.2646 34.4497 66.8392 34.4497 66.3957C34.4497 65.9522 34.6246 65.5268 34.936 65.2132C35.2473 64.8996 35.6696 64.7234 36.1099 64.7234H70.9109C71.3512 64.7234 71.7735 64.8996 72.0848 65.2132C72.3962 65.5268 72.5711 65.9522 72.5711 66.3957C72.5711 66.8392 72.3962 67.2646 72.0848 67.5782C71.7735 67.8918 71.3512 68.068 70.9109 68.068H36.1099ZM15.8906 51.2333H91.1095V33.6947C91.11 33.625 91.0968 33.5559 91.0706 33.4913C91.0445 33.4267 91.006 33.368 90.9573 33.3184C90.8593 33.2217 90.7279 33.1667 90.5907 33.1651H16.4094C16.294 33.1661 16.1822 33.2053 16.0912 33.2766L16.0427 33.3254C15.9461 33.4237 15.8914 33.5563 15.8906 33.6947V51.2333ZM91.1095 56.1597H81.6881C81.9093 56.2919 82.1117 56.4536 82.2899 56.6404C82.5883 56.9403 82.825 57.2966 82.9864 57.6887C83.1479 58.0809 83.2309 58.5014 83.2307 58.926V66.6884H90.5907C90.7282 66.6882 90.8601 66.6331 90.9573 66.5351C91.0522 66.4355 91.1065 66.3037 91.1095 66.1658V56.1597ZM25.312 56.1597H15.8906V66.1379C15.8919 66.2529 15.9281 66.3647 15.9943 66.4584L16.0427 66.5072C16.1399 66.6052 16.2718 66.6604 16.4094 66.6605H23.7694V58.926C23.7692 58.5014 23.8522 58.0809 24.0136 57.6887C24.1751 57.2966 24.4118 56.9403 24.7101 56.6404C24.8883 56.4536 25.0908 56.2919 25.312 56.1597ZM78.347 59.1071H28.653V84.0736H78.347V59.1071Z" fill="#1F8CF0"/>
</svg>
