<svg width="107" height="97" viewBox="0 0 107 97" fill="none" xmlns="http://www.w3.org/2000/svg">
<path d="M57.2119 7.34665L87.4619 24.8073C89.4456 25.955 90.6702 28.0706 90.6702 30.3623V65.2873C90.6705 66.414 90.3742 67.5208 89.811 68.4966C89.2478 69.4724 88.4376 70.2827 87.4619 70.846L57.2119 88.3066C56.2367 88.8705 55.1301 89.1674 54.0036 89.1674C52.8771 89.1674 51.7705 88.8705 50.7952 88.3066L20.5452 70.8423C19.5701 70.2793 18.7602 69.4696 18.1971 68.4945C17.6339 67.5194 17.3373 66.4133 17.3369 65.2873V30.3623C17.3369 28.0706 18.5616 25.955 20.5452 24.8073L50.7952 7.34665C51.7705 6.78275 52.8771 6.48584 54.0036 6.48584C55.1301 6.48584 56.2367 6.78275 57.2119 7.34665ZM53.5452 12.106L25.5869 28.2466L54.0036 44.6513L82.4202 28.2466L54.4619 12.106C54.3228 12.0248 54.1646 11.982 54.0036 11.982C53.8425 11.982 53.6844 12.0248 53.5452 12.106ZM56.7536 82.2236L84.7119 66.083C84.851 66.0027 84.9665 65.8873 85.047 65.7483C85.1274 65.6093 85.1699 65.4516 85.1702 65.291V33.0096L56.7536 49.4143V82.2236ZM22.8369 33.0133V65.291C22.8369 65.621 23.0129 65.9216 23.2952 66.083L51.2536 82.2236V49.418L22.8369 33.0133Z" fill="white"/>
</svg>
