<svg width="107" height="97" viewBox="0 0 107 97" fill="none" xmlns="http://www.w3.org/2000/svg">
<path d="M48.3364 18.0418C44.3966 18.0418 40.7201 19.1369 37.5858 21.0442C37.2618 19.3189 36.6713 17.654 35.8353 16.1088C39.7663 13.9429 44.197 12.8358 48.6894 12.897C53.1818 12.9581 57.5804 14.1854 61.4505 16.4575C65.3205 18.7297 68.5281 21.9679 70.7561 25.8523C72.9841 29.7367 74.1555 34.1327 74.1544 38.6059H87.0686C89.1219 38.6072 91.0906 39.4203 92.5421 40.8663C93.9935 42.3124 94.8088 44.2731 94.8088 46.3174V77.1635C94.8088 79.2087 93.9928 81.1702 92.5402 82.6163C91.0877 84.0625 89.1176 84.875 87.0634 84.875H56.0818C54.0276 84.875 52.0575 84.0625 50.605 82.6163C49.1524 81.1702 48.3364 79.2087 48.3364 77.1635V64.3109C44.7445 64.3155 41.1914 63.5712 37.9059 62.126C37.973 60.3781 38.0092 58.5427 38.0092 56.5994V56.4195C41.0454 58.1674 44.5721 59.1699 48.3364 59.1699V46.3174C48.3364 44.2722 49.1524 42.3107 50.605 40.8645C52.0575 39.4183 54.0276 38.6059 56.0818 38.6059H68.9908C68.9908 33.152 66.8147 27.9214 62.9413 24.0649C59.0678 20.2084 53.8143 18.0418 48.3364 18.0418ZM73.638 43.7469C72.6224 48.6852 70.1725 53.2178 66.5925 56.7821C63.0125 60.3465 58.46 62.7856 53.5 63.7968V77.1635C53.5 77.8452 53.772 78.499 54.2562 78.9811C54.7404 79.4632 55.397 79.734 56.0818 79.734H87.0634C87.7481 79.734 88.4048 79.4632 88.889 78.9811C89.3732 78.499 89.6452 77.8452 89.6452 77.1635V46.3174C89.6452 45.6357 89.3732 44.9818 88.889 44.4998C88.4048 44.0177 87.7481 43.7469 87.0634 43.7469H73.638ZM68.3402 43.7469H56.0818C55.397 43.7469 54.7404 44.0177 54.2562 44.4998C53.772 44.9818 53.5 45.6357 53.5 46.3174V58.5222C57.0722 57.6007 60.332 55.7449 62.9413 53.1469C65.5507 50.549 67.4147 47.3035 68.3402 43.7469ZM25.5184 8.40243C25.947 8.77568 26.2397 9.27953 26.3508 9.83555C26.4619 10.3916 26.3853 10.9686 26.1329 11.4768C26.0892 11.6272 26.0666 11.7829 26.0658 11.9394C26.0658 12.2633 26.1484 12.8803 26.9281 13.6514C27.305 14.0267 27.5942 14.294 27.9092 14.5871C28.1673 14.8236 28.441 15.0703 28.787 15.4096C29.4583 16.0471 30.1657 16.7977 30.8008 17.7385C32.1175 19.7075 32.8456 22.1701 32.8456 25.7533C32.8456 30.1386 31.2139 33.8761 28.6682 36.169L28.9987 36.5495C30.4445 38.318 31.2862 40.6109 31.8129 42.8729C32.8456 47.3456 32.8456 52.7231 32.8456 56.4709V56.5994C32.8456 70.9274 30.8886 79.0554 28.7353 83.7028C27.651 86.042 26.4995 87.5329 25.5029 88.4686C25.0978 88.8556 24.651 89.1969 24.1707 89.4865C23.9508 89.6183 23.7212 89.7334 23.484 89.8309C23.484 89.8309 22.9005 90.016 22.5184 90.016C22.1363 90.016 21.5528 89.8309 21.5528 89.8309C21.3129 89.7392 21.0829 89.6238 20.866 89.4865C20.3857 89.1969 19.939 88.8556 19.5338 88.4686C18.5372 87.5278 17.3857 86.042 16.3014 83.7028C14.1482 79.0554 12.1912 70.9274 12.1912 56.5994V56.4709C12.1912 52.718 12.1912 47.3456 13.2239 42.8729C13.7506 40.6109 14.5922 38.318 16.038 36.5495C16.1413 36.4209 16.2549 36.2924 16.3685 36.169C13.8229 33.8761 12.1912 30.1386 12.1912 25.7533C12.1912 24.0774 12.6404 22.0775 13.26 20.2319C13.8797 18.3811 14.7471 16.4687 15.7489 14.9264C16.9417 12.9214 18.6198 11.2403 19.9211 10.1092C20.6345 9.48459 21.379 8.89606 22.1518 8.34588L22.3067 8.24306L22.3531 8.20707L22.3686 8.19679L22.379 8.19165C22.8524 7.87741 23.4169 7.72772 23.9847 7.76584C24.5524 7.80395 25.0916 8.02775 25.5184 8.40243ZM22.5184 33.4649C24.5167 33.4597 27.682 31.2542 27.682 25.7533C27.682 22.9104 27.1191 21.5172 26.4995 20.5918C26.1228 20.0513 25.6882 19.5531 25.2034 19.106L24.5632 18.5097C24.1449 18.1189 23.6544 17.6665 23.2723 17.2912C22.7075 16.7348 22.2227 16.1034 21.8316 15.4148C21.1743 16.1028 20.5959 16.8615 20.107 17.6768C19.3841 18.7821 18.6818 20.2987 18.1603 21.8616C17.6233 23.4553 17.3548 24.864 17.3548 25.7533C17.3548 31.2645 20.5304 33.4649 22.5184 33.4649ZM20.0398 39.7986C19.3066 40.688 18.6973 42.1069 18.2532 44.0297C17.3651 47.8751 17.3548 52.7077 17.3548 56.5994C17.3548 70.547 19.2705 77.8421 20.9899 81.5488C21.5579 82.7672 22.0898 83.5795 22.5184 84.1193C23.1285 83.3258 23.6415 82.4629 24.0468 81.5488C25.7663 77.8421 27.682 70.547 27.682 56.5994C27.682 52.7077 27.6716 47.8751 26.7783 44.0297C26.3343 42.1069 25.725 40.688 24.9969 39.7986C24.7121 39.4144 24.3376 39.105 23.9057 38.8972C23.4739 38.6894 22.9977 38.5894 22.5184 38.6059H22.508C22.0303 38.5906 21.5561 38.6912 21.1261 38.899C20.6961 39.1068 20.3233 39.4155 20.0398 39.7986Z" fill="#1F8CF0"/>
</svg>
