<svg width="106" height="97" viewBox="0 0 106 97" fill="none" xmlns="http://www.w3.org/2000/svg">
<mask id="path-1-outside-1_23_129" maskUnits="userSpaceOnUse" x="4.00244" y="0.998047" width="99" height="96" fill="black">
<rect fill="white" x="4.00244" y="0.998047" width="99" height="96"/>
<path d="M24.1586 8.72818H84.01C85.1073 8.72818 85.9598 9.64998 85.9598 10.7294V14.2117L100.563 18.1195C101.629 18.4031 102.205 19.514 101.929 20.5619L85.9598 80.0298V93.9986C85.9598 95.0859 85.1073 95.9998 84.01 95.9998H24.1586C23.0535 95.9998 22.2088 95.078 22.2088 93.9986V84.4025L5.07123 20.554C4.79494 19.514 5.37119 18.3953 6.43687 18.1116L22.2088 13.8966V10.7372C22.2088 9.65786 23.0614 8.72818 24.1586 8.72818ZM85.9598 17.7571V67.2507L98.3611 21.074L85.9598 17.7571ZM22.2088 71.6233V17.442L8.63926 21.074L22.2088 71.6233ZM42.7566 2.06286L58.576 6.29368H45.3142L43.175 5.71854L43.0171 6.29368H39.5912L40.3411 3.50465C40.6253 2.45679 41.6909 1.77923 42.7566 2.06286ZM66.3435 50.6031L59.689 44.2293L58.2839 52.8407C58.2602 53.0061 58.2049 53.1794 58.126 53.3291C58.0471 53.4788 57.9365 53.6206 57.7945 53.7388C57.4945 53.9909 57.1156 54.1012 56.7525 54.0776C56.3893 54.0461 56.0341 53.8806 55.7736 53.5813L45.6063 41.5585L34.9338 51.1861V54.377H73.2507V43.2839L66.9277 50.548C66.8645 50.6504 66.7461 50.7134 66.6198 50.7134C66.5093 50.7134 66.4146 50.674 66.3435 50.6031ZM66.5882 46.8529L73.2428 38.8876V28.1963H34.9338V47.3099C38.1703 44.3869 41.5015 41.1724 44.809 38.3991C45.1011 38.147 45.4642 38.0367 45.8115 38.0603C46.1747 38.0761 46.5299 38.2337 46.7904 38.5173L46.7983 38.5331C46.8141 38.5488 46.8299 38.5646 46.8456 38.5882L55.9394 49.3268L57.2892 41.0463C57.3603 40.6682 57.5734 40.353 57.8655 40.1403C58.1576 39.9355 58.5286 39.8252 58.9154 39.8882L58.9549 39.8961C59.0891 39.9197 59.2232 39.967 59.3417 40.0221C59.4758 40.0852 59.5943 40.1718 59.7048 40.2742L66.5882 46.8529ZM59.7442 28.6454C60.3047 28.6454 60.8573 28.7636 61.3546 28.9684C61.8756 29.1811 62.3413 29.4963 62.7281 29.8823C63.1149 30.2684 63.4307 30.7332 63.6517 31.2532C63.857 31.7496 63.9675 32.3011 63.9675 32.8604C63.9675 33.4198 63.8491 33.9713 63.6517 34.4677C63.4386 34.9877 63.1228 35.4525 62.736 35.8386C62.3492 36.2246 61.8835 36.5398 61.3625 36.7525C60.8652 36.9652 60.3205 37.0755 59.7521 37.0755C59.1917 37.0755 58.6391 36.9573 58.1418 36.7525C57.6208 36.5398 57.1629 36.2246 56.7683 35.8386C56.3815 35.4525 56.0657 34.9877 55.8447 34.4677C55.6394 33.9713 55.5289 33.4277 55.5289 32.8604C55.5289 32.3011 55.6473 31.7496 55.8447 31.2532C56.0578 30.7332 56.3736 30.2684 56.7604 29.8823C57.1472 29.4963 57.6129 29.1811 58.1339 28.9684C58.6312 28.7557 59.1759 28.6454 59.7442 28.6454ZM61.0152 31.5999C60.8494 31.4344 60.652 31.3005 60.431 31.2059C60.2258 31.1193 59.989 31.072 59.7442 31.072C59.4995 31.072 59.2706 31.1193 59.0575 31.2059C58.8365 31.3005 58.6391 31.4344 58.4733 31.592C58.3076 31.7574 58.1734 31.9544 58.0865 32.175C57.9997 32.3877 57.9523 32.6162 57.9523 32.8604C57.9523 33.0968 57.9997 33.3332 58.0865 33.5459C58.1813 33.7665 58.3155 33.9635 58.4733 34.1289C58.6391 34.2944 58.8365 34.4283 59.0575 34.5228C59.2627 34.6095 59.4995 34.6568 59.7442 34.6568C59.9811 34.6568 60.2179 34.6095 60.431 34.5228C60.652 34.4283 60.8494 34.2944 61.0152 34.1368C61.1809 33.9713 61.3151 33.7744 61.4099 33.5538C61.4967 33.341 61.544 33.1126 61.544 32.8683C61.544 32.632 61.4967 32.3956 61.4099 32.1829C61.3151 31.9623 61.1809 31.7653 61.0152 31.5999ZM33.5445 25.3442H74.64C75.0268 25.3442 75.3741 25.5097 75.6267 25.7697C75.8793 26.0218 76.0293 26.3842 76.0293 26.7703V55.803C76.0293 56.1891 75.8793 56.5436 75.6267 56.8036C75.3741 57.0636 75.0268 57.2291 74.64 57.2291H33.5445C33.1577 57.2291 32.8103 57.0636 32.5656 56.8036C32.313 56.5515 32.163 56.1891 32.163 55.803V26.7703C32.163 26.3842 32.313 26.0297 32.5656 25.7697C32.8103 25.5097 33.1577 25.3442 33.5445 25.3442ZM37.7914 61.9169H62.0414C62.2703 61.9169 62.4676 62.0114 62.6176 62.1532L62.6413 62.1847C62.7676 62.3344 62.8544 62.5156 62.8544 62.7284V64.3041C62.8544 64.5247 62.7597 64.7295 62.6176 64.8792C62.4676 65.0289 62.2703 65.1156 62.0414 65.1156H37.7914C37.5624 65.1156 37.3651 65.021 37.2151 64.8792L37.1914 64.8477C37.0651 64.698 36.9783 64.5168 36.9783 64.3041V62.7284C36.9783 62.4999 37.073 62.3029 37.2151 62.1532C37.373 62.0114 37.5703 61.9169 37.7914 61.9169ZM32.5577 61.9169H34.5707C34.7917 61.9169 34.989 62.0114 35.1469 62.1532C35.289 62.3029 35.3837 62.5077 35.3837 62.7284V64.3041C35.3837 64.5247 35.289 64.7295 35.1469 64.8792C34.9969 65.0289 34.7996 65.1156 34.5707 65.1156H32.5577C32.3367 65.1156 32.1314 65.021 31.9815 64.8792C31.8315 64.7374 31.7446 64.5326 31.7446 64.3041V62.7284C31.7446 62.4999 31.8394 62.3029 31.9815 62.1532C32.1236 62.0035 32.3367 61.9169 32.5577 61.9169ZM32.905 75.3736H75.2715C75.6031 75.3736 75.8951 75.5233 76.1083 75.7675C76.3056 75.996 76.4319 76.3032 76.4319 76.642V76.9572C76.4319 77.2959 76.3135 77.6111 76.1083 77.8317L76.0846 77.8553C75.8793 78.0838 75.5873 78.2177 75.2715 78.2177H32.905C32.5735 78.2177 32.2814 78.0681 32.0683 77.8238C31.871 77.5953 31.7446 77.2881 31.7446 76.9493V76.6341C31.7446 76.2954 31.871 75.9802 32.0683 75.7596L32.092 75.736C32.3051 75.5154 32.5814 75.3736 32.905 75.3736ZM32.905 68.5979H75.2715C75.6031 68.5979 75.8951 68.7476 76.1083 68.9919C76.3056 69.2203 76.4319 69.5276 76.4319 69.8664V70.1815C76.4319 70.5203 76.3135 70.8355 76.1083 71.0561L76.0846 71.0797C75.8793 71.3082 75.5873 71.4421 75.2715 71.4421H32.905C32.5735 71.4421 32.2814 71.2924 32.0683 71.0482C31.871 70.8197 31.7446 70.5124 31.7446 70.1737V69.8585C31.7446 69.5197 31.871 69.2046 32.0683 68.984L32.092 68.9604C32.3051 68.7397 32.5814 68.5979 32.905 68.5979ZM82.6523 12.1554H25.5243V92.5805H82.6523V12.1554Z"/>
</mask>
<path d="M24.1586 8.72818H84.01C85.1073 8.72818 85.9598 9.64998 85.9598 10.7294V14.2117L100.563 18.1195C101.629 18.4031 102.205 19.514 101.929 20.5619L85.9598 80.0298V93.9986C85.9598 95.0859 85.1073 95.9998 84.01 95.9998H24.1586C23.0535 95.9998 22.2088 95.078 22.2088 93.9986V84.4025L5.07123 20.554C4.79494 19.514 5.37119 18.3953 6.43687 18.1116L22.2088 13.8966V10.7372C22.2088 9.65786 23.0614 8.72818 24.1586 8.72818ZM85.9598 17.7571V67.2507L98.3611 21.074L85.9598 17.7571ZM22.2088 71.6233V17.442L8.63926 21.074L22.2088 71.6233ZM42.7566 2.06286L58.576 6.29368H45.3142L43.175 5.71854L43.0171 6.29368H39.5912L40.3411 3.50465C40.6253 2.45679 41.6909 1.77923 42.7566 2.06286ZM66.3435 50.6031L59.689 44.2293L58.2839 52.8407C58.2602 53.0061 58.2049 53.1794 58.126 53.3291C58.0471 53.4788 57.9365 53.6206 57.7945 53.7388C57.4945 53.9909 57.1156 54.1012 56.7525 54.0776C56.3893 54.0461 56.0341 53.8806 55.7736 53.5813L45.6063 41.5585L34.9338 51.1861V54.377H73.2507V43.2839L66.9277 50.548C66.8645 50.6504 66.7461 50.7134 66.6198 50.7134C66.5093 50.7134 66.4146 50.674 66.3435 50.6031ZM66.5882 46.8529L73.2428 38.8876V28.1963H34.9338V47.3099C38.1703 44.3869 41.5015 41.1724 44.809 38.3991C45.1011 38.147 45.4642 38.0367 45.8115 38.0603C46.1747 38.0761 46.5299 38.2337 46.7904 38.5173L46.7983 38.5331C46.8141 38.5488 46.8299 38.5646 46.8456 38.5882L55.9394 49.3268L57.2892 41.0463C57.3603 40.6682 57.5734 40.353 57.8655 40.1403C58.1576 39.9355 58.5286 39.8252 58.9154 39.8882L58.9549 39.8961C59.0891 39.9197 59.2232 39.967 59.3417 40.0221C59.4758 40.0852 59.5943 40.1718 59.7048 40.2742L66.5882 46.8529ZM59.7442 28.6454C60.3047 28.6454 60.8573 28.7636 61.3546 28.9684C61.8756 29.1811 62.3413 29.4963 62.7281 29.8823C63.1149 30.2684 63.4307 30.7332 63.6517 31.2532C63.857 31.7496 63.9675 32.3011 63.9675 32.8604C63.9675 33.4198 63.8491 33.9713 63.6517 34.4677C63.4386 34.9877 63.1228 35.4525 62.736 35.8386C62.3492 36.2246 61.8835 36.5398 61.3625 36.7525C60.8652 36.9652 60.3205 37.0755 59.7521 37.0755C59.1917 37.0755 58.6391 36.9573 58.1418 36.7525C57.6208 36.5398 57.1629 36.2246 56.7683 35.8386C56.3815 35.4525 56.0657 34.9877 55.8447 34.4677C55.6394 33.9713 55.5289 33.4277 55.5289 32.8604C55.5289 32.3011 55.6473 31.7496 55.8447 31.2532C56.0578 30.7332 56.3736 30.2684 56.7604 29.8823C57.1472 29.4963 57.6129 29.1811 58.1339 28.9684C58.6312 28.7557 59.1759 28.6454 59.7442 28.6454ZM61.0152 31.5999C60.8494 31.4344 60.652 31.3005 60.431 31.2059C60.2258 31.1193 59.989 31.072 59.7442 31.072C59.4995 31.072 59.2706 31.1193 59.0575 31.2059C58.8365 31.3005 58.6391 31.4344 58.4733 31.592C58.3076 31.7574 58.1734 31.9544 58.0865 32.175C57.9997 32.3877 57.9523 32.6162 57.9523 32.8604C57.9523 33.0968 57.9997 33.3332 58.0865 33.5459C58.1813 33.7665 58.3155 33.9635 58.4733 34.1289C58.6391 34.2944 58.8365 34.4283 59.0575 34.5228C59.2627 34.6095 59.4995 34.6568 59.7442 34.6568C59.9811 34.6568 60.2179 34.6095 60.431 34.5228C60.652 34.4283 60.8494 34.2944 61.0152 34.1368C61.1809 33.9713 61.3151 33.7744 61.4099 33.5538C61.4967 33.341 61.544 33.1126 61.544 32.8683C61.544 32.632 61.4967 32.3956 61.4099 32.1829C61.3151 31.9623 61.1809 31.7653 61.0152 31.5999ZM33.5445 25.3442H74.64C75.0268 25.3442 75.3741 25.5097 75.6267 25.7697C75.8793 26.0218 76.0293 26.3842 76.0293 26.7703V55.803C76.0293 56.1891 75.8793 56.5436 75.6267 56.8036C75.3741 57.0636 75.0268 57.2291 74.64 57.2291H33.5445C33.1577 57.2291 32.8103 57.0636 32.5656 56.8036C32.313 56.5515 32.163 56.1891 32.163 55.803V26.7703C32.163 26.3842 32.313 26.0297 32.5656 25.7697C32.8103 25.5097 33.1577 25.3442 33.5445 25.3442ZM37.7914 61.9169H62.0414C62.2703 61.9169 62.4676 62.0114 62.6176 62.1532L62.6413 62.1847C62.7676 62.3344 62.8544 62.5156 62.8544 62.7284V64.3041C62.8544 64.5247 62.7597 64.7295 62.6176 64.8792C62.4676 65.0289 62.2703 65.1156 62.0414 65.1156H37.7914C37.5624 65.1156 37.3651 65.021 37.2151 64.8792L37.1914 64.8477C37.0651 64.698 36.9783 64.5168 36.9783 64.3041V62.7284C36.9783 62.4999 37.073 62.3029 37.2151 62.1532C37.373 62.0114 37.5703 61.9169 37.7914 61.9169ZM32.5577 61.9169H34.5707C34.7917 61.9169 34.989 62.0114 35.1469 62.1532C35.289 62.3029 35.3837 62.5077 35.3837 62.7284V64.3041C35.3837 64.5247 35.289 64.7295 35.1469 64.8792C34.9969 65.0289 34.7996 65.1156 34.5707 65.1156H32.5577C32.3367 65.1156 32.1314 65.021 31.9815 64.8792C31.8315 64.7374 31.7446 64.5326 31.7446 64.3041V62.7284C31.7446 62.4999 31.8394 62.3029 31.9815 62.1532C32.1236 62.0035 32.3367 61.9169 32.5577 61.9169ZM32.905 75.3736H75.2715C75.6031 75.3736 75.8951 75.5233 76.1083 75.7675C76.3056 75.996 76.4319 76.3032 76.4319 76.642V76.9572C76.4319 77.2959 76.3135 77.6111 76.1083 77.8317L76.0846 77.8553C75.8793 78.0838 75.5873 78.2177 75.2715 78.2177H32.905C32.5735 78.2177 32.2814 78.0681 32.0683 77.8238C31.871 77.5953 31.7446 77.2881 31.7446 76.9493V76.6341C31.7446 76.2954 31.871 75.9802 32.0683 75.7596L32.092 75.736C32.3051 75.5154 32.5814 75.3736 32.905 75.3736ZM32.905 68.5979H75.2715C75.6031 68.5979 75.8951 68.7476 76.1083 68.9919C76.3056 69.2203 76.4319 69.5276 76.4319 69.8664V70.1815C76.4319 70.5203 76.3135 70.8355 76.1083 71.0561L76.0846 71.0797C75.8793 71.3082 75.5873 71.4421 75.2715 71.4421H32.905C32.5735 71.4421 32.2814 71.2924 32.0683 71.0482C31.871 70.8197 31.7446 70.5124 31.7446 70.1737V69.8585C31.7446 69.5197 31.871 69.2046 32.0683 68.984L32.092 68.9604C32.3051 68.7397 32.5814 68.5979 32.905 68.5979ZM82.6523 12.1554H25.5243V92.5805H82.6523V12.1554Z" fill="#1F8CF0"/>
<path d="M24.1586 8.72818H84.01C85.1073 8.72818 85.9598 9.64998 85.9598 10.7294V14.2117L100.563 18.1195C101.629 18.4031 102.205 19.514 101.929 20.5619L85.9598 80.0298V93.9986C85.9598 95.0859 85.1073 95.9998 84.01 95.9998H24.1586C23.0535 95.9998 22.2088 95.078 22.2088 93.9986V84.4025L5.07123 20.554C4.79494 19.514 5.37119 18.3953 6.43687 18.1116L22.2088 13.8966V10.7372C22.2088 9.65786 23.0614 8.72818 24.1586 8.72818ZM85.9598 17.7571V67.2507L98.3611 21.074L85.9598 17.7571ZM22.2088 71.6233V17.442L8.63926 21.074L22.2088 71.6233ZM42.7566 2.06286L58.576 6.29368H45.3142L43.175 5.71854L43.0171 6.29368H39.5912L40.3411 3.50465C40.6253 2.45679 41.6909 1.77923 42.7566 2.06286ZM66.3435 50.6031L59.689 44.2293L58.2839 52.8407C58.2602 53.0061 58.2049 53.1794 58.126 53.3291C58.0471 53.4788 57.9365 53.6206 57.7945 53.7388C57.4945 53.9909 57.1156 54.1012 56.7525 54.0776C56.3893 54.0461 56.0341 53.8806 55.7736 53.5813L45.6063 41.5585L34.9338 51.1861V54.377H73.2507V43.2839L66.9277 50.548C66.8645 50.6504 66.7461 50.7134 66.6198 50.7134C66.5093 50.7134 66.4146 50.674 66.3435 50.6031ZM66.5882 46.8529L73.2428 38.8876V28.1963H34.9338V47.3099C38.1703 44.3869 41.5015 41.1724 44.809 38.3991C45.1011 38.147 45.4642 38.0367 45.8115 38.0603C46.1747 38.0761 46.5299 38.2337 46.7904 38.5173L46.7983 38.5331C46.8141 38.5488 46.8299 38.5646 46.8456 38.5882L55.9394 49.3268L57.2892 41.0463C57.3603 40.6682 57.5734 40.353 57.8655 40.1403C58.1576 39.9355 58.5286 39.8252 58.9154 39.8882L58.9549 39.8961C59.0891 39.9197 59.2232 39.967 59.3417 40.0221C59.4758 40.0852 59.5943 40.1718 59.7048 40.2742L66.5882 46.8529ZM59.7442 28.6454C60.3047 28.6454 60.8573 28.7636 61.3546 28.9684C61.8756 29.1811 62.3413 29.4963 62.7281 29.8823C63.1149 30.2684 63.4307 30.7332 63.6517 31.2532C63.857 31.7496 63.9675 32.3011 63.9675 32.8604C63.9675 33.4198 63.8491 33.9713 63.6517 34.4677C63.4386 34.9877 63.1228 35.4525 62.736 35.8386C62.3492 36.2246 61.8835 36.5398 61.3625 36.7525C60.8652 36.9652 60.3205 37.0755 59.7521 37.0755C59.1917 37.0755 58.6391 36.9573 58.1418 36.7525C57.6208 36.5398 57.1629 36.2246 56.7683 35.8386C56.3815 35.4525 56.0657 34.9877 55.8447 34.4677C55.6394 33.9713 55.5289 33.4277 55.5289 32.8604C55.5289 32.3011 55.6473 31.7496 55.8447 31.2532C56.0578 30.7332 56.3736 30.2684 56.7604 29.8823C57.1472 29.4963 57.6129 29.1811 58.1339 28.9684C58.6312 28.7557 59.1759 28.6454 59.7442 28.6454ZM61.0152 31.5999C60.8494 31.4344 60.652 31.3005 60.431 31.2059C60.2258 31.1193 59.989 31.072 59.7442 31.072C59.4995 31.072 59.2706 31.1193 59.0575 31.2059C58.8365 31.3005 58.6391 31.4344 58.4733 31.592C58.3076 31.7574 58.1734 31.9544 58.0865 32.175C57.9997 32.3877 57.9523 32.6162 57.9523 32.8604C57.9523 33.0968 57.9997 33.3332 58.0865 33.5459C58.1813 33.7665 58.3155 33.9635 58.4733 34.1289C58.6391 34.2944 58.8365 34.4283 59.0575 34.5228C59.2627 34.6095 59.4995 34.6568 59.7442 34.6568C59.9811 34.6568 60.2179 34.6095 60.431 34.5228C60.652 34.4283 60.8494 34.2944 61.0152 34.1368C61.1809 33.9713 61.3151 33.7744 61.4099 33.5538C61.4967 33.341 61.544 33.1126 61.544 32.8683C61.544 32.632 61.4967 32.3956 61.4099 32.1829C61.3151 31.9623 61.1809 31.7653 61.0152 31.5999ZM33.5445 25.3442H74.64C75.0268 25.3442 75.3741 25.5097 75.6267 25.7697C75.8793 26.0218 76.0293 26.3842 76.0293 26.7703V55.803C76.0293 56.1891 75.8793 56.5436 75.6267 56.8036C75.3741 57.0636 75.0268 57.2291 74.64 57.2291H33.5445C33.1577 57.2291 32.8103 57.0636 32.5656 56.8036C32.313 56.5515 32.163 56.1891 32.163 55.803V26.7703C32.163 26.3842 32.313 26.0297 32.5656 25.7697C32.8103 25.5097 33.1577 25.3442 33.5445 25.3442ZM37.7914 61.9169H62.0414C62.2703 61.9169 62.4676 62.0114 62.6176 62.1532L62.6413 62.1847C62.7676 62.3344 62.8544 62.5156 62.8544 62.7284V64.3041C62.8544 64.5247 62.7597 64.7295 62.6176 64.8792C62.4676 65.0289 62.2703 65.1156 62.0414 65.1156H37.7914C37.5624 65.1156 37.3651 65.021 37.2151 64.8792L37.1914 64.8477C37.0651 64.698 36.9783 64.5168 36.9783 64.3041V62.7284C36.9783 62.4999 37.073 62.3029 37.2151 62.1532C37.373 62.0114 37.5703 61.9169 37.7914 61.9169ZM32.5577 61.9169H34.5707C34.7917 61.9169 34.989 62.0114 35.1469 62.1532C35.289 62.3029 35.3837 62.5077 35.3837 62.7284V64.3041C35.3837 64.5247 35.289 64.7295 35.1469 64.8792C34.9969 65.0289 34.7996 65.1156 34.5707 65.1156H32.5577C32.3367 65.1156 32.1314 65.021 31.9815 64.8792C31.8315 64.7374 31.7446 64.5326 31.7446 64.3041V62.7284C31.7446 62.4999 31.8394 62.3029 31.9815 62.1532C32.1236 62.0035 32.3367 61.9169 32.5577 61.9169ZM32.905 75.3736H75.2715C75.6031 75.3736 75.8951 75.5233 76.1083 75.7675C76.3056 75.996 76.4319 76.3032 76.4319 76.642V76.9572C76.4319 77.2959 76.3135 77.6111 76.1083 77.8317L76.0846 77.8553C75.8793 78.0838 75.5873 78.2177 75.2715 78.2177H32.905C32.5735 78.2177 32.2814 78.0681 32.0683 77.8238C31.871 77.5953 31.7446 77.2881 31.7446 76.9493V76.6341C31.7446 76.2954 31.871 75.9802 32.0683 75.7596L32.092 75.736C32.3051 75.5154 32.5814 75.3736 32.905 75.3736ZM32.905 68.5979H75.2715C75.6031 68.5979 75.8951 68.7476 76.1083 68.9919C76.3056 69.2203 76.4319 69.5276 76.4319 69.8664V70.1815C76.4319 70.5203 76.3135 70.8355 76.1083 71.0561L76.0846 71.0797C75.8793 71.3082 75.5873 71.4421 75.2715 71.4421H32.905C32.5735 71.4421 32.2814 71.2924 32.0683 71.0482C31.871 70.8197 31.7446 70.5124 31.7446 70.1737V69.8585C31.7446 69.5197 31.871 69.2046 32.0683 68.984L32.092 68.9604C32.3051 68.7397 32.5814 68.5979 32.905 68.5979ZM82.6523 12.1554H25.5243V92.5805H82.6523V12.1554Z" stroke="#1F8CF0" stroke-width="1.4" mask="url(#path-1-outside-1_23_129)"/>
</svg>
