<svg width="74" height="84" viewBox="0 0 74 84" fill="none" xmlns="http://www.w3.org/2000/svg">
<path id="Vector" d="M40.2119 1.34665L70.4619 18.8073C72.4456 19.955 73.6702 22.0706 73.6702 24.3623V59.2873C73.6705 60.414 73.3742 61.5208 72.811 62.4966C72.2478 63.4724 71.4376 64.2827 70.4619 64.846L40.2119 82.3066C39.2367 82.8705 38.1301 83.1674 37.0036 83.1674C35.8771 83.1674 34.7705 82.8705 33.7952 82.3066L3.54525 64.8423C2.57008 64.2793 1.76025 63.4696 1.19708 62.4945C0.633921 61.5194 0.337264 60.4133 0.336914 59.2873V24.3623C0.336914 22.0706 1.56158 19.955 3.54525 18.8073L33.7952 1.34665C34.7705 0.782747 35.8771 0.48584 37.0036 0.48584C38.1301 0.48584 39.2367 0.782747 40.2119 1.34665ZM36.5452 6.10598L8.58691 22.2466L37.0036 38.6513L65.4202 22.2466L37.4619 6.10598C37.3228 6.0248 37.1646 5.98202 37.0036 5.98202C36.8425 5.98202 36.6844 6.0248 36.5452 6.10598ZM39.7536 76.2236L67.7119 60.083C67.851 60.0027 67.9665 59.8873 68.047 59.7483C68.1274 59.6093 68.1699 59.4516 68.1702 59.291V27.0096L39.7536 43.4143V76.2236ZM5.83691 27.0133V59.291C5.83691 59.621 6.01291 59.9216 6.29525 60.083L34.2536 76.2236V43.418L5.83691 27.0133Z" fill="#1F8CF0"/>
</svg>
