<svg width="258" height="119" viewBox="0 0 258 119" fill="none" xmlns="http://www.w3.org/2000/svg">
<g clip-path="url(#clip0_30_1423)">
<path fill-rule="evenodd" clip-rule="evenodd" d="M16.3762 0.873535H68.5545C77.2863 0.873535 84.4302 7.94172 84.4302 16.5804V68.2045C84.4302 76.8436 77.2861 83.9116 68.5545 83.9116H26.273V80.4984H68.5545C75.3818 80.4984 80.9802 74.9593 80.9802 68.2043V16.5803C80.9802 9.82543 75.3818 4.28673 68.5545 4.28673H16.3762C9.54926 4.28673 3.95052 9.82561 3.95052 16.5803V68.2043C3.95052 73.6189 7.54788 78.2516 12.4921 79.8772V83.4322C5.62186 81.7063 0.500488 75.5188 0.500488 68.2045V16.5804C0.500488 7.94172 7.64495 0.873535 16.3762 0.873535Z" fill="#0D4270"/>
<path fill-rule="evenodd" clip-rule="evenodd" d="M44.5893 16.5914C58.2446 17.662 68.9886 28.9635 68.9886 42.7484C68.9886 43.6264 68.9444 44.4941 68.8595 45.35H67.0353H62.0531H44.4502V39.3347H61.9263C60.4149 30.8406 53.3604 24.237 44.5895 23.3092V16.5916L44.5893 16.5914ZM67.0071 52.7138C63.2967 61.6473 54.7497 68.1095 44.5893 68.906V62.1885C50.9272 61.5181 56.3691 57.8833 59.4708 52.7138H67.0071ZM41.0011 68.9503C33.8032 68.5629 27.3691 65.3364 22.8229 60.3822V89.6579H20.1557C18.7099 89.6579 17.2991 89.4986 15.9417 89.1967V42.7483C15.9417 28.742 27.0343 17.2995 41.0009 16.5474V23.2495C30.7704 23.9907 22.7028 32.4373 22.7028 42.7484L22.8229 44.9035C23.8553 54.2147 31.4933 61.559 41.0011 62.2478V68.9503Z" fill="#0D4270"/>
<path fill-rule="evenodd" clip-rule="evenodd" d="M97.5518 0.873535H99.6455C99.8507 0.873535 100.019 1.03944 100.019 1.24263V83.5431C100.019 83.7457 99.8508 83.9118 99.6455 83.9118H97.5518C97.3468 83.9118 97.1787 83.7455 97.1787 83.5431V1.24263C97.1787 1.03963 97.3468 0.873535 97.5518 0.873535Z" fill="#0D4270"/>
<path d="M120.788 11.013H113.129V39.6869H117.311V29.6102H120.788C126.461 29.6102 129.69 26.2919 129.69 20.2705C129.69 14.4125 126.461 11.013 120.788 11.013ZM120.747 25.6776H117.311V14.9454H120.747C123.893 14.9454 125.425 16.7478 125.425 20.2705C125.425 23.9574 123.893 25.6776 120.747 25.6776ZM141.904 40.2194C147.452 40.2194 150.764 36.5737 150.764 30.593V20.1069C150.764 14.1259 147.452 10.4805 141.904 10.4805C136.356 10.4805 133.043 14.1259 133.043 20.1069V30.593C133.043 36.5735 136.356 40.2194 141.904 40.2194ZM141.904 36.1641C138.881 36.1641 137.349 34.1979 137.349 30.5932V20.1071C137.349 16.5022 138.881 14.5358 141.904 14.5358C144.885 14.5358 146.458 16.5022 146.458 20.1071V30.5932C146.458 34.1981 144.885 36.1641 141.904 36.1641ZM159.914 35.7545V11.013H155.732V39.6869H169.519V35.7545H159.914ZM172.707 11.013V39.6869H176.889V11.013H172.707ZM190.386 40.1373C195.603 40.1373 198.874 36.983 198.956 31.3713V24.0801H190.262V27.7664H194.858V31.3713C194.858 34.6483 193.202 36.1639 190.427 36.1639C187.736 36.1639 186.08 34.6483 186.08 31.1664V19.5331C186.08 16.0514 187.653 14.5354 190.303 14.5354C192.953 14.5354 194.444 15.9693 194.609 19.2874H198.749C198.542 13.6344 195.437 10.5624 190.303 10.5624C185.045 10.5624 181.815 13.6752 181.815 19.4922V31.1666C181.815 36.983 185.169 40.1373 190.386 40.1373H190.386ZM215.89 39.6869H220.527L214.234 28.7091C217.546 27.5208 219.45 24.4487 219.45 19.9837C219.45 14.2897 216.304 11.013 210.756 11.013H203.262V39.6869H207.444V29.2825H210.052L215.89 39.6869H215.89ZM207.444 14.9454H210.715C213.613 14.9454 215.145 16.6658 215.145 20.0658C215.145 23.4655 213.613 25.3501 210.673 25.3501H207.444V14.9454ZM236.26 39.6869H240.607L233.321 11.013H228.808L221.521 39.6869H225.91L227.234 33.9113H234.894L236.26 39.6869H236.26ZM228.146 30.0608L229.926 22.3597C230.381 20.4756 230.795 17.7308 231.002 16.2154H231.126C231.333 17.7308 231.789 20.4754 232.203 22.3597L234.025 30.0608H228.146H228.146ZM257.5 14.9047V11.0132H243.837V39.6871H248.019V27.2342H256.754V23.4657H248.019V14.9049H257.5V14.9047ZM117.311 74.6431V65.877H126.543V62.0674H117.311V53.7522H127.33V49.8609H113.129V78.5348H127.744V74.6432H117.31L117.311 74.6431ZM148.114 78.5346L141.2 63.6653L147.7 49.8609H143.104L138.922 59.5691L134.699 49.8609H130.104L136.604 63.6653L129.69 78.5346H134.327L138.922 67.9253L143.477 78.5346H148.114H148.114ZM165.751 49.8607H149.439V53.7931H155.442V78.5346H159.706V53.7931H165.752V49.8607H165.751ZM181.733 78.5346H186.37L180.077 67.5566C183.389 66.3685 185.293 63.2966 185.293 58.8316C185.293 53.1374 182.147 49.8609 176.599 49.8609H169.105V78.5348H173.287V68.1304H175.895L181.733 78.5348V78.5346ZM173.287 53.7931H176.557C179.456 53.7931 180.988 55.5135 180.988 58.9136C180.988 62.3132 179.456 64.1975 176.516 64.1975H173.287V53.7931H173.287ZM202.103 78.5346H206.45L199.163 49.8607H194.651L187.364 78.5346H191.752L193.077 72.7588H200.737L202.103 78.5346H202.103ZM193.988 68.9081L195.768 61.2072C196.224 59.3231 196.638 56.5783 196.845 55.0629H196.969C197.176 56.5783 197.631 59.3229 198.045 61.2072L199.868 68.9081H193.989H193.988Z" fill="#0D4270"/>
<path d="M8.02247 102.374H0.5V114.66H1.89555V103.684H6.62692V114.66H8.02247V102.374ZM14.977 114.941C17.4609 114.941 19.1168 113.373 19.1168 110.495V106.539C19.1168 103.66 17.4609 102.092 14.977 102.092C12.4933 102.092 10.8374 103.66 10.8374 106.539V110.495C10.8374 113.373 12.4933 114.941 14.977 114.941ZM14.977 113.584C13.2974 113.584 12.2567 112.624 12.2567 110.495V106.539C12.2567 104.409 13.2974 103.45 14.977 103.45C16.6567 103.45 17.6975 104.409 17.6975 106.539V110.495C17.6975 112.624 16.6567 113.584 14.977 113.584ZM20.4887 114.754C22.7124 114.754 23.5404 112.882 23.753 109.184C23.8242 107.85 23.9422 105.51 23.9896 103.684H27.6088V114.66H29.0044V102.374H22.6176C22.5703 104.667 22.523 106.703 22.3811 108.973C22.2155 111.431 21.9555 113.42 20.4887 113.42V114.754ZM32.127 114.66H33.57L37.4256 106.961C37.8278 106.141 38.2536 105.275 38.419 104.737L38.4664 104.761C38.419 105.744 38.3718 106.75 38.3718 108.037V114.66H39.7677V102.374H38.3244L34.3503 110.377C34.114 110.869 33.7354 111.711 33.5224 112.203L33.4752 112.156C33.5462 111.243 33.5224 110.307 33.5224 109.394V102.373H32.1268V114.66L32.127 114.66ZM49.0641 102.374H42.89V114.66H44.2855V103.707H49.0639V102.374H49.0641ZM55.2379 102.092C54.0317 102.092 52.9671 102.607 52.3048 103.52L52.1156 102.373H50.9798V118.873H52.352V113.56C53.0379 114.496 54.1263 114.941 55.2379 114.941C57.6273 114.941 59.0939 113.373 59.0939 110.33V106.796C59.0939 103.684 57.4853 102.092 55.2379 102.092V102.092ZM57.6745 110.331C57.6745 112.671 56.752 113.654 54.9305 113.654C53.3693 113.654 52.352 112.297 52.352 110.331V106.75C52.352 104.456 53.5111 103.38 54.9305 103.38C56.6574 103.38 57.6745 104.386 57.6745 106.797V110.331ZM65.5516 102.092C63.2573 102.092 61.7196 103.473 61.625 105.58H63.0205C63.1151 104.222 64.0851 103.426 65.5044 103.426C67.1129 103.426 67.9645 104.386 67.9645 106.188V107.499H65.5044C62.7841 107.499 61.2464 108.81 61.2464 111.173C61.2464 113.56 62.9021 114.941 65.1732 114.941C66.5214 114.941 67.4675 114.333 68.0353 113.514L68.1537 114.66H69.36V106.165C69.36 103.66 67.9173 102.092 65.5514 102.092H65.5516ZM65.386 113.584C63.7775 113.584 62.6657 112.812 62.6657 111.197C62.6657 109.629 63.6357 108.786 65.457 108.786H67.9645V111.197C67.9645 112.601 66.9711 113.584 65.386 113.584ZM79.4848 102.186H78.8696V97.8096H77.4975V102.186H76.8825C74.2802 102.186 72.1751 103.965 72.1751 107.054V110.097C72.1751 113.116 74.304 114.847 76.8825 114.847H77.4975V118.873H78.8696V114.847H79.4848C82.0631 114.847 84.1918 113.116 84.1918 110.097V107.054C84.1918 103.965 82.0867 102.186 79.4848 102.186ZM76.8825 113.49C75.0848 113.49 73.5945 112.367 73.5945 110.097V107.054C73.5945 104.691 75.061 103.543 76.8825 103.543H77.4975V113.49H76.8825ZM82.7727 110.097C82.7727 112.367 81.2825 113.49 79.4846 113.49H78.8694V103.543H79.4846C81.3061 103.543 82.7727 104.69 82.7727 107.054V110.097ZM87.0069 114.66H88.4498L92.3058 106.96C92.7078 106.141 93.1338 105.275 93.2992 104.737L93.3466 104.761C93.2992 105.744 93.252 106.75 93.252 108.037V114.66H94.6475V102.373H93.2046L89.2302 110.377C88.994 110.869 88.6152 111.711 88.4022 112.203L88.355 112.156C88.426 111.243 88.4022 110.307 88.4022 109.394V102.373H87.0067V114.66L87.0069 114.66ZM100.845 102.373C98.4798 102.373 96.9184 103.941 96.9184 106.281C96.9184 108.294 97.9358 109.769 99.4969 110.097L96.4929 114.66H98.1488L100.987 110.167H102.88V114.66H104.276V102.373H100.845L100.845 102.373ZM102.88 108.879H100.703C99.1421 108.879 98.338 107.943 98.338 106.281C98.338 104.667 99.2605 103.707 100.845 103.707H102.88V108.879ZM120.195 102.373H112.673V114.66H114.069V103.684H118.8V114.66H120.195V102.373ZM127.15 114.941C129.634 114.941 131.29 113.373 131.29 110.494V106.539C131.29 103.66 129.634 102.092 127.15 102.092C124.666 102.092 123.01 103.66 123.01 106.539V110.494C123.01 113.373 124.666 114.941 127.15 114.941ZM127.15 113.584C125.47 113.584 124.43 112.624 124.43 110.494V106.539C124.43 104.409 125.47 103.45 127.15 103.45C128.83 103.45 129.87 104.409 129.87 106.539V110.494C129.87 112.624 128.83 113.584 127.15 113.584ZM132.662 114.754C134.885 114.754 135.713 112.882 135.926 109.184C135.997 107.85 136.115 105.51 136.163 103.684H139.782V114.66H141.177V102.373H134.791C134.743 104.667 134.696 106.703 134.554 108.973C134.388 111.431 134.128 113.42 132.662 113.42V114.754ZM150.427 102.373V107.639H145.696V102.373H144.3V114.66H145.696V108.95H150.427V114.66H151.823V102.373H150.427ZM158.777 114.941C161.261 114.941 162.917 113.373 162.917 110.494V106.539C162.917 103.66 161.261 102.092 158.777 102.092C156.293 102.092 154.638 103.66 154.638 106.539V110.494C154.638 113.373 156.293 114.941 158.777 114.941ZM158.777 113.584C157.098 113.584 156.057 112.624 156.057 110.494V106.539C156.057 104.409 157.098 103.45 158.777 103.45C160.457 103.45 161.497 104.409 161.497 106.539V110.494C161.497 112.624 160.457 113.584 158.777 113.584ZM171.906 102.373H165.732V114.66H167.128V103.707H171.906V102.373ZM177.134 114.941C179.617 114.941 181.273 113.373 181.273 110.494V106.539C181.273 103.66 179.617 102.092 177.134 102.092C174.65 102.092 172.994 103.66 172.994 106.539V110.494C172.994 113.373 174.65 114.941 177.134 114.941ZM177.134 113.584C175.454 113.584 174.413 112.624 174.413 110.494V106.539C174.413 104.409 175.454 103.45 177.134 103.45C178.813 103.45 179.854 104.409 179.854 106.539V110.494C179.854 112.624 178.813 113.584 177.134 113.584ZM193.172 114.894C195.632 114.894 197.217 113.326 197.288 110.518H195.869C195.797 112.577 194.827 113.537 193.172 113.537C191.587 113.537 190.617 112.577 190.617 110.518V106.469C190.617 104.409 191.587 103.45 193.172 103.45C194.827 103.45 195.774 104.409 195.845 106.469H197.264C197.193 103.66 195.632 102.092 193.172 102.092C190.782 102.092 189.198 103.66 189.198 106.469V110.518C189.198 113.326 190.783 114.894 193.172 114.894H193.172ZM207.247 102.373H199.724V114.66H201.12V103.684H205.851V114.66H207.247V102.373H207.247ZM216.992 110.892C216.803 112.694 215.904 113.537 214.107 113.537C212.474 113.537 211.481 112.577 211.481 110.518V109.184H218.223V106.469C218.223 103.66 216.567 102.092 214.083 102.092C211.67 102.092 210.061 103.66 210.061 106.469V110.518C210.061 113.326 211.646 114.894 214.059 114.894C216.661 114.894 218.199 113.467 218.388 110.892H216.992ZM214.107 103.45C215.81 103.45 216.827 104.409 216.827 106.469V107.896H211.481V106.469C211.481 104.409 212.474 103.45 214.107 103.45ZM227.708 114.66H229.435L224.302 107.709L228.82 102.373H227.022L224.255 105.72C223.64 106.469 223.024 107.218 222.409 107.943V102.373H221.013V114.66H222.409V109.956L223.379 108.786L227.708 114.66V114.66ZM237.265 102.373H229.719V103.66H232.794V114.66H234.19V103.66H237.265V102.373H237.265ZM243.368 102.092C242.162 102.092 241.097 102.607 240.435 103.52L240.246 102.373H239.11V118.873H240.482V113.56C241.168 114.496 242.256 114.941 243.368 114.941C245.757 114.941 247.224 113.373 247.224 110.33V106.796C247.224 103.683 245.615 102.092 243.368 102.092V102.092ZM245.805 110.33C245.805 112.671 244.882 113.654 243.061 113.654C241.499 113.654 240.482 112.296 240.482 110.33V106.75C240.482 104.456 241.641 103.38 243.061 103.38C244.787 103.38 245.805 104.386 245.805 106.796V110.33ZM253.682 102.092C251.387 102.092 249.85 103.473 249.755 105.579H251.151C251.245 104.222 252.215 103.426 253.634 103.426C255.243 103.426 256.095 104.386 256.095 106.188V107.499H253.634C250.914 107.499 249.376 108.809 249.376 111.173C249.376 113.56 251.032 114.941 253.303 114.941C254.651 114.941 255.598 114.332 256.165 113.513L256.284 114.66H257.49V106.165C257.49 103.66 256.047 102.092 253.681 102.092H253.682ZM253.516 113.583C251.908 113.583 250.796 112.811 250.796 111.196C250.796 109.628 251.766 108.786 253.587 108.786H256.095V111.196C256.095 112.601 255.101 113.583 253.516 113.583Z" fill="#898989"/>
</g>
<defs>
<clipPath id="clip0_30_1423">
<rect width="257" height="118" fill="white" transform="translate(0.5 0.873535)"/>
</clipPath>
</defs>
</svg>
