<svg width="147" height="68" viewBox="0 0 147 68" fill="none" xmlns="http://www.w3.org/2000/svg">
<g clip-path="url(#clip0_23_49)">
<path fill-rule="evenodd" clip-rule="evenodd" d="M9.08105 0.000183105H38.9262C43.9207 0.000183105 48.0069 4.07337 48.0069 9.05162V38.8011C48.0069 43.7795 43.9206 47.8526 38.9262 47.8526H14.7418V45.8857H38.9262C42.8313 45.8857 46.0335 42.6937 46.0335 38.801V9.05151C46.0335 5.1589 42.8313 1.96711 38.9262 1.96711H9.08105C5.17613 1.96711 1.97373 5.15901 1.97373 9.05151V38.801C1.97373 41.9213 4.03136 44.591 6.85935 45.5277V47.5763C2.92971 46.5818 0.000366211 43.0161 0.000366211 38.8011V9.05162C0.000366211 4.07337 4.08689 0.000183105 9.08105 0.000183105Z" fill="#0D4270"/>
<path fill-rule="evenodd" clip-rule="evenodd" d="M25.2184 9.05808C33.029 9.67501 39.1744 16.1877 39.1744 24.1316C39.1744 24.6375 39.1491 25.1376 39.1006 25.6308H38.0572H35.2074H25.1389V22.1644H35.1349C34.2704 17.2695 30.2354 13.464 25.2185 12.9293V9.05819L25.2184 9.05808ZM38.0411 29.8744C35.9188 35.0225 31.03 38.7464 25.2184 39.2055V35.3344C28.8436 34.948 31.9563 32.8534 33.7304 29.8744H38.0411ZM23.166 39.231C19.0489 39.0078 15.3687 37.1484 12.7684 34.2934V51.1642H11.2428C10.4158 51.1642 9.60885 51.0724 8.8324 50.8984V24.1315C8.8324 16.0601 15.1772 9.46611 23.1659 9.03268V12.8949C17.3142 13.322 12.6997 18.1896 12.6997 24.1316L12.7684 25.3735C13.3589 30.7393 17.7277 34.9716 23.166 35.3685V39.231Z" fill="#0D4270"/>
<path fill-rule="evenodd" clip-rule="evenodd" d="M55.5122 0.00012207H56.7098C56.8271 0.00012207 56.9232 0.0957282 56.9232 0.212821V47.6402C56.9232 47.757 56.8272 47.8527 56.7098 47.8527H55.5122C55.395 47.8527 55.2988 47.7569 55.2988 47.6402V0.212821C55.2988 0.0958367 55.395 0.00012207 55.5122 0.00012207Z" fill="#0D4270"/>
<path d="M68.803 5.84318H64.422V22.3671H66.8139V16.5602H68.803C72.0476 16.5602 73.8946 14.648 73.8946 11.178C73.8946 7.80218 72.0476 5.84318 68.803 5.84318ZM68.7793 14.294H66.8138V8.1093H68.7793C70.5791 8.1093 71.4552 9.14794 71.4552 11.178C71.4552 13.3026 70.5791 14.294 68.7793 14.294ZM80.8806 22.674C84.0541 22.674 85.9485 20.573 85.9485 17.1265V11.0837C85.9485 7.63702 84.0541 5.53629 80.8806 5.53629C77.7073 5.53629 75.8128 7.63702 75.8128 11.0837V17.1265C75.8128 20.5729 77.7073 22.674 80.8806 22.674ZM80.8806 20.337C79.152 20.337 78.2756 19.2039 78.2756 17.1267V11.0838C78.2756 9.00643 79.152 7.87326 80.8806 7.87326C82.5859 7.87326 83.4857 9.00643 83.4857 11.0838V17.1267C83.4857 19.2041 82.5859 20.337 80.8806 20.337ZM91.1824 20.101V5.84318H88.7904V22.3671H96.6765V20.101H91.1824ZM98.5 5.84318V22.3671H100.892V5.84318H98.5ZM108.612 22.6267C111.596 22.6267 113.467 20.809 113.514 17.5751V13.3734H108.541V15.4977H111.17V17.5751C111.17 19.4635 110.222 20.3369 108.635 20.3369C107.096 20.3369 106.149 19.4635 106.149 17.457V10.7531C106.149 8.74663 107.049 7.87305 108.564 7.87305C110.08 7.87305 110.933 8.69932 111.027 10.6114H113.396C113.277 7.35378 111.501 5.58349 108.564 5.58349C105.557 5.58349 103.71 7.37733 103.71 10.7295V17.4571C103.71 20.809 105.628 22.6267 108.612 22.6267H108.612ZM123.2 22.3671H125.852L122.253 16.0409C124.147 15.3562 125.236 13.5858 125.236 11.0127C125.236 7.73143 123.436 5.84318 120.263 5.84318H115.977V22.3671H118.369V16.3714H119.861L123.2 22.3671H123.2ZM118.369 8.1093H120.24C121.897 8.1093 122.773 9.10073 122.773 11.0601C122.773 13.0192 121.897 14.1052 120.216 14.1052H118.369V8.1093ZM134.851 22.3671H137.338L133.17 5.84318H130.589L126.42 22.3671H128.931L129.689 19.0388H134.07L134.851 22.3671H134.851ZM130.21 16.8199L131.228 12.3819C131.488 11.2962 131.725 9.71442 131.844 8.84115H131.915C132.033 9.71442 132.294 11.2961 132.53 12.3819L133.573 16.8199H130.21H130.21ZM147 8.08586V5.84329H139.185V22.3672H141.577V15.191H146.574V13.0193H141.577V8.08596H147V8.08586ZM66.8138 42.5113V37.4597H72.0948V35.2644H66.8138V30.4726H72.5447V28.2301H64.4219V44.754H72.7814V42.5114H66.8137L66.8138 42.5113ZM84.4328 44.7539L80.4781 36.1852L84.1961 28.2301H81.5675L79.1755 33.8246L76.76 28.2301H74.1314L77.8495 36.1852L73.8946 44.7539H76.5469L79.1755 38.6401L81.7806 44.7539H84.4329H84.4328ZM94.5213 28.23H85.1906V30.4961H88.6244V44.7539H91.0636V30.4961H94.5214V28.23H94.5213ZM103.662 44.7539H106.315L102.715 38.4276C104.61 37.743 105.699 35.9727 105.699 33.3997C105.699 30.1182 103.899 28.2301 100.726 28.2301H96.4396V44.754H98.8313V38.7583H100.323L103.662 44.754V44.7539ZM98.8313 30.4961H100.702C102.36 30.4961 103.236 31.4875 103.236 33.4469C103.236 35.406 102.36 36.4918 100.679 36.4918H98.8315V30.4961H98.8313ZM115.314 44.7539H117.8L113.632 28.23H111.051L106.883 44.7539H109.393L110.151 41.4255H114.532L115.314 44.7539H115.314ZM110.672 39.2065L111.691 34.7687C111.951 33.6829 112.188 32.1011 112.306 31.2279H112.377C112.496 32.1011 112.756 33.6828 112.993 34.7687L114.035 39.2065H110.673H110.672Z" fill="#0D4270"/>
<path d="M4.30274 58.4917H0V65.5723H0.79823V59.2469H3.50451V65.5723H4.30274V58.4917ZM8.2806 65.7341C9.70135 65.7341 10.6485 64.8304 10.6485 63.1716V60.8922C10.6485 59.2332 9.70135 58.3296 8.2806 58.3296C6.85997 58.3296 5.9128 59.2333 5.9128 60.8922V63.1716C5.9128 64.8304 6.85997 65.7341 8.2806 65.7341ZM8.2806 64.9518C7.31994 64.9518 6.72464 64.3988 6.72464 63.1716V60.8922C6.72464 59.6648 7.31994 59.112 8.2806 59.112C9.24138 59.112 9.83667 59.6649 9.83667 60.8922V63.1716C9.83667 64.3988 9.24138 64.9518 8.2806 64.9518ZM11.4332 65.6262C12.7052 65.6262 13.1787 64.5473 13.3004 62.4164C13.3411 61.6476 13.4086 60.299 13.4357 59.2469H15.5058V65.5723H16.3041V58.4917H12.6509C12.6238 59.8133 12.5968 60.9866 12.5156 62.295C12.4209 63.7112 12.2722 64.8576 11.4332 64.8576V65.6262ZM18.0902 65.5723H18.9155L21.1209 61.135C21.3509 60.6629 21.5945 60.164 21.6891 59.8538L21.7162 59.8674C21.6891 60.4339 21.6621 61.0138 21.6621 61.7555V65.5723H22.4605V58.4917H21.635L19.3619 63.1041C19.2267 63.3873 19.0101 63.8728 18.8883 64.156L18.8613 64.1291C18.9019 63.603 18.8883 63.0635 18.8883 62.5375V58.4916H18.0901V65.5722L18.0902 65.5723ZM27.7779 58.4917H24.2464V65.5723H25.0446V59.2603H27.7778V58.4917H27.7779ZM31.3092 58.3296C30.6193 58.3296 30.0104 58.6264 29.6315 59.1523L29.5233 58.4916H28.8737V67.9998H29.6585V64.9381C30.0509 65.4777 30.6734 65.734 31.3092 65.734C32.6759 65.734 33.5148 64.8303 33.5148 63.077V61.0405C33.5148 59.2466 32.5947 58.3295 31.3092 58.3295V58.3296ZM32.7029 63.0771C32.7029 64.4258 32.1753 64.9923 31.1334 64.9923C30.2404 64.9923 29.6585 64.21 29.6585 63.0771V61.0137C29.6585 59.6919 30.3215 59.0716 31.1334 59.0716C32.1211 59.0716 32.7029 59.6513 32.7029 61.0406V63.0771ZM37.2085 58.3296C35.8962 58.3296 35.0166 59.1253 34.9625 60.3392H35.7608C35.8149 59.557 36.3697 59.0984 37.1815 59.0984C38.1016 59.0984 38.5886 59.6513 38.5886 60.6898V61.4453H37.1815C35.6255 61.4453 34.746 62.2006 34.746 63.5626C34.746 64.9382 35.693 65.7341 36.9921 65.7341C37.7632 65.7341 38.3044 65.3834 38.6291 64.9114L38.6969 65.5723H39.3869V60.6765C39.3869 59.2333 38.5616 58.3296 37.2084 58.3296H37.2085ZM37.1138 64.9518C36.1937 64.9518 35.5578 64.5068 35.5578 63.5762C35.5578 62.6725 36.1126 62.187 37.1544 62.187H38.5886V63.5762C38.5886 64.3855 38.0205 64.9518 37.1138 64.9518ZM45.1781 58.3836H44.8262V55.8616H44.0414V58.3836H43.6896C42.2011 58.3836 40.997 59.4086 40.997 61.1888V62.9422C40.997 64.6821 42.2148 65.68 43.6896 65.68H44.0414V67.9998H44.8262V65.68H45.1781C46.6528 65.68 47.8704 64.6821 47.8704 62.9422V61.1888C47.8704 59.4086 46.6663 58.3836 45.1781 58.3836ZM43.6896 64.8979C42.6613 64.8979 41.8089 64.2506 41.8089 62.9423V61.1889C41.8089 59.8269 42.6477 59.1658 43.6896 59.1658H44.0414V64.8979H43.6896ZM47.0587 62.9423C47.0587 64.2506 46.2063 64.8979 45.178 64.8979H44.8261V59.1658H45.178C46.2198 59.1658 47.0587 59.8268 47.0587 61.1889V62.9423ZM49.4806 65.5722H50.3059L52.5115 61.1349C52.7414 60.6628 52.9851 60.1638 53.0797 59.8537L53.1068 59.8673C53.0797 60.4337 53.0527 61.0137 53.0527 61.7554V65.5722H53.8509V58.4916H53.0256L50.7523 63.104C50.6172 63.3872 50.4005 63.8727 50.2787 64.1559L50.2517 64.129C50.2923 63.6028 50.2787 63.0634 50.2787 62.5374V58.4914H49.4805V65.5721L49.4806 65.5722ZM57.3959 58.4916C56.0429 58.4916 55.1498 59.3952 55.1498 60.7437C55.1498 61.9036 55.7318 62.7532 56.6247 62.9422L54.9064 65.5721H55.8536L57.4773 62.9825H58.5595V65.5721H59.358V58.4914H57.396L57.3959 58.4916ZM58.5595 62.2408H57.3148C56.4218 62.2408 55.9618 61.7014 55.9618 60.7437C55.9618 59.8132 56.4895 59.2602 57.3959 59.2602H58.5595V62.2408ZM68.4639 58.4916H64.1612V65.5722H64.9594V59.2467H67.6657V65.5722H68.4639V58.4916ZM72.4418 65.734C73.8625 65.734 74.8097 64.8303 74.8097 63.1715V60.8921C74.8097 59.2331 73.8625 58.3295 72.4418 58.3295C71.0211 58.3295 70.074 59.2332 70.074 60.8921V63.1715C70.074 64.8303 71.0211 65.734 72.4418 65.734ZM72.4418 64.9516C71.4811 64.9516 70.8858 64.3987 70.8858 63.1715V60.8921C70.8858 59.6647 71.4811 59.1119 72.4418 59.1119C73.4026 59.1119 73.9979 59.6648 73.9979 60.8921V63.1715C73.9979 64.3987 73.4026 64.9516 72.4418 64.9516ZM75.5944 65.6261C76.8663 65.6261 77.3399 64.5472 77.4615 62.4163C77.5023 61.6475 77.5698 60.2988 77.5969 59.2467H79.667V65.5722H80.4652V58.4916H76.8121C76.785 59.8132 76.758 60.9865 76.6768 62.2949C76.5821 63.711 76.4334 64.8574 75.5944 64.8574V65.6261ZM85.7558 58.4916V61.526H83.0497V58.4916H82.2515V65.5722H83.0497V62.2813H85.7558V65.5722H86.5542V58.4916H85.7558ZM90.5321 65.734C91.9528 65.734 92.9 64.8303 92.9 63.1715V60.8921C92.9 59.2331 91.9528 58.3295 90.5321 58.3295C89.1114 58.3295 88.1643 59.2332 88.1643 60.8921V63.1715C88.1643 64.8303 89.1114 65.734 90.5321 65.734ZM90.5321 64.9516C89.5714 64.9516 88.9761 64.3987 88.9761 63.1715V60.8921C88.9761 59.6647 89.5714 59.1119 90.5321 59.1119C91.4928 59.1119 92.088 59.6648 92.088 60.8921V63.1715C92.088 64.3987 91.4928 64.9516 90.5321 64.9516ZM98.0414 58.4916H94.5099V65.5722H95.3084V59.2602H98.0414V58.4916ZM101.032 65.734C102.452 65.734 103.4 64.8303 103.4 63.1715V60.8921C103.4 59.2331 102.452 58.3295 101.032 58.3295C99.611 58.3295 98.6638 59.2332 98.6638 60.8921V63.1715C98.6638 64.8303 99.611 65.734 101.032 65.734ZM101.032 64.9516C100.071 64.9516 99.4757 64.3987 99.4757 63.1715V60.8921C99.4757 59.6647 100.071 59.1119 101.032 59.1119C101.992 59.1119 102.588 59.6648 102.588 60.8921V63.1715C102.588 64.3987 101.992 64.9516 101.032 64.9516ZM110.205 65.7071C111.612 65.7071 112.519 64.8034 112.56 63.1848H111.748C111.707 64.3718 111.152 64.9247 110.205 64.9247C109.299 64.9247 108.744 64.3718 108.744 63.1848V60.8516C108.744 59.6647 109.299 59.1117 110.205 59.1117C111.152 59.1117 111.694 59.6647 111.734 60.8516H112.546C112.505 59.2331 111.612 58.3294 110.205 58.3294C108.839 58.3294 107.932 59.2331 107.932 60.8516V63.1848C107.932 64.8034 108.839 65.7071 110.205 65.7071H110.205ZM118.256 58.4916H113.953V65.5722H114.752V59.2467H117.458V65.5722H118.256V58.4916H118.256ZM123.83 63.4008C123.722 64.4392 123.208 64.9247 122.18 64.9247C121.246 64.9247 120.678 64.3718 120.678 63.1848V62.4162H124.534V60.8516C124.534 59.2331 123.587 58.3294 122.166 58.3294C120.786 58.3294 119.866 59.2331 119.866 60.8516V63.1848C119.866 64.8034 120.772 65.7071 122.153 65.7071C123.641 65.7071 124.52 64.8844 124.629 63.4008H123.83ZM122.18 59.1119C123.154 59.1119 123.736 59.6648 123.736 60.8518V61.6743H120.678V60.8518C120.678 59.6648 121.246 59.1119 122.18 59.1119ZM129.96 65.5721H130.947L128.011 61.5664L130.595 58.4914H129.567L127.984 60.4201C127.632 60.8516 127.28 61.2832 126.929 61.7013V58.4914H126.13V65.5721H126.929V62.8612L127.484 62.1868L129.96 65.5719V65.5721ZM135.426 58.4914H131.11V59.2331H132.869V65.5721H133.667V59.2331H135.426V58.4914H135.426ZM138.917 58.3294C138.227 58.3294 137.618 58.6262 137.239 59.1521L137.131 58.4913H136.481V67.9995H137.266V64.9379C137.658 65.4775 138.281 65.7337 138.917 65.7337C140.283 65.7337 141.122 64.8301 141.122 63.0767V61.0403C141.122 59.2464 140.202 58.3293 138.917 58.3293V58.3294ZM140.31 63.0769C140.31 64.4255 139.783 64.9921 138.741 64.9921C137.848 64.9921 137.266 64.2098 137.266 63.0769V61.0135C137.266 59.6917 137.929 59.0714 138.741 59.0714C139.729 59.0714 140.31 59.6511 140.31 61.0404V63.0769ZM144.816 58.3294C143.504 58.3294 142.624 59.1251 142.57 60.339H143.368C143.422 59.5568 143.977 59.0982 144.789 59.0982C145.709 59.0982 146.196 59.6511 146.196 60.6896V61.445H144.789C143.233 61.445 142.353 62.2003 142.353 63.5624C142.353 64.938 143.301 65.7339 144.599 65.7339C145.371 65.7339 145.912 65.3832 146.237 64.9112L146.304 65.5721H146.994V60.6763C146.994 59.2331 146.169 58.3294 144.816 58.3294H144.816ZM144.721 64.9515C143.801 64.9515 143.165 64.5066 143.165 63.5759C143.165 62.6723 143.72 62.1868 144.762 62.1868H146.196V63.5759C146.196 64.3853 145.628 64.9515 144.721 64.9515Z" fill="#898989"/>
</g>
<defs>
<clipPath id="clip0_23_49">
<rect width="147" height="68" fill="white"/>
</clipPath>
</defs>
</svg>
