<svg width="31" height="43" viewBox="0 0 31 43" fill="none" xmlns="http://www.w3.org/2000/svg">
<path fill-rule="evenodd" clip-rule="evenodd" d="M16.386 0.0253933C24.1967 0.64233 30.342 7.15505 30.342 15.0989C30.342 15.6049 30.3167 16.1049 30.2682 16.5981H29.2248H26.375H16.3065V13.1317H26.3025C25.438 8.23678 21.403 4.43131 16.3861 3.89663V0.0255019L16.386 0.0253933ZM29.2087 20.8417C27.0864 25.9898 22.1976 29.7138 16.386 30.1728V26.3017C20.0112 25.9153 23.1239 23.8207 24.898 20.8417H29.2087ZM14.3336 30.1983C10.2165 29.9751 6.5363 28.1157 3.93595 25.2607V42.1315H2.41037C1.5834 42.1315 0.776456 42.0397 0 41.8657V15.0988C0 7.02743 6.3448 0.433429 14.3335 0V3.86223C8.4818 4.28936 3.86726 9.15692 3.86726 15.0989L3.93595 16.3408C4.52646 21.7066 8.89528 25.9389 14.3336 26.3359V30.1983Z" fill="#0D4270"/>
</svg>
