<svg width="15" height="13" viewBox="0 0 15 13" fill="none" xmlns="http://www.w3.org/2000/svg">
<path d="M15 2.29899C14.4484 2.5333 13.8481 2.70194 13.2298 2.76762C13.8717 2.39207 14.3525 1.79875 14.5818 1.09899C13.9794 1.45187 13.3195 1.69931 12.6313 1.83035C12.3437 1.52755 11.9958 1.28633 11.6094 1.12172C11.2229 0.957108 10.8062 0.872627 10.3852 0.873543C8.68165 0.873543 7.31162 2.23331 7.31162 3.90194C7.31162 4.13626 7.34046 4.37058 7.38733 4.59603C4.83656 4.46466 2.56159 3.26467 1.04915 1.42739C0.77357 1.89091 0.629156 2.41868 0.630934 2.95579C0.630934 4.00668 1.17354 4.9333 2.00096 5.47827C1.51335 5.45936 1.03715 5.32738 0.611104 5.09307V5.13034C0.611104 6.60194 1.66747 7.82147 3.07535 8.10194C2.81101 8.16956 2.53907 8.20415 2.26595 8.2049C2.06586 8.2049 1.87658 8.18537 1.68549 8.15875C2.07487 9.35874 3.20875 10.2303 4.55895 10.2587C3.50258 11.0735 2.17943 11.5528 0.742699 11.5528C0.484918 11.5528 0.246966 11.544 0 11.5155C1.36282 12.3765 2.97981 12.8735 4.72119 12.8735C10.3744 12.8735 13.4677 8.2617 13.4677 4.25875C13.4677 4.12739 13.4677 3.99603 13.4587 3.86466C14.0572 3.4333 14.5818 2.89899 15 2.29899Z" fill="white"/>
</svg>
