<svg width="15" height="16" viewBox="0 0 15 16" fill="none" xmlns="http://www.w3.org/2000/svg">
<path fill-rule="evenodd" clip-rule="evenodd" d="M4.40795 0.918535C5.20773 0.881717 5.46273 0.873535 7.5 0.873535C9.53727 0.873535 9.79227 0.882399 10.5914 0.918535C11.3905 0.954672 11.9359 1.08217 12.4132 1.26694C12.913 1.45581 13.3664 1.75104 13.7414 2.13285C14.1232 2.50717 14.4177 2.9599 14.6059 3.46035C14.7914 3.93763 14.9182 4.48308 14.955 5.28081C14.9918 6.08194 15 6.33694 15 8.37354C15 10.4108 14.9911 10.6658 14.955 11.4656C14.9189 12.2633 14.7914 12.8088 14.6059 13.286C14.4177 13.7866 14.1227 14.24 13.7414 14.6149C13.3664 14.9967 12.913 15.2913 12.4132 15.4794C11.9359 15.6649 11.3905 15.7917 10.5927 15.8285C9.79227 15.8654 9.53727 15.8735 7.5 15.8735C5.46273 15.8735 5.20773 15.8647 4.40795 15.8285C3.61023 15.7924 3.06477 15.6649 2.5875 15.4794C2.08699 15.2912 1.63351 14.9962 1.25864 14.6149C0.877077 14.2404 0.581806 13.7871 0.393409 13.2867C0.208636 12.8094 0.0818182 12.264 0.045 11.4663C0.00818181 10.6651 0 10.4101 0 8.37354C0 6.33626 0.00886363 6.08126 0.045 5.28217C0.0811364 4.48308 0.208636 3.93763 0.393409 3.46035C0.582084 2.95995 0.877581 2.5067 1.25932 2.13217C1.63366 1.7507 2.08669 1.45543 2.58682 1.26694C3.06409 1.08217 3.60955 0.955353 4.40727 0.918535H4.40795ZM10.5307 2.26854C9.73977 2.2324 9.5025 2.2249 7.5 2.2249C5.4975 2.2249 5.26023 2.2324 4.46932 2.26854C3.73773 2.30194 3.34091 2.42399 3.07636 2.52694C2.72659 2.66331 2.47636 2.8249 2.21386 3.0874C1.96503 3.32948 1.77353 3.62418 1.65341 3.9499C1.55045 4.21444 1.42841 4.61126 1.395 5.34285C1.35886 6.13376 1.35136 6.37104 1.35136 8.37354C1.35136 10.376 1.35886 10.6133 1.395 11.4042C1.42841 12.1358 1.55045 12.5326 1.65341 12.7972C1.77341 13.1224 1.965 13.4176 2.21386 13.6597C2.45591 13.9085 2.75114 14.1001 3.07636 14.2201C3.34091 14.3231 3.73773 14.4451 4.46932 14.4785C5.26023 14.5147 5.49682 14.5222 7.5 14.5222C9.50318 14.5222 9.73977 14.5147 10.5307 14.4785C11.2623 14.4451 11.6591 14.3231 11.9236 14.2201C12.2734 14.0838 12.5236 13.9222 12.7861 13.6597C13.035 13.4176 13.2266 13.1224 13.3466 12.7972C13.4495 12.5326 13.5716 12.1358 13.605 11.4042C13.6411 10.6133 13.6486 10.376 13.6486 8.37354C13.6486 6.37104 13.6411 6.13376 13.605 5.34285C13.5716 4.61126 13.4495 4.21444 13.3466 3.9499C13.2102 3.60013 13.0486 3.3499 12.7861 3.0874C12.544 2.83858 12.2493 2.64709 11.9236 2.52694C11.6591 2.42399 11.2623 2.30194 10.5307 2.26854ZM6.54205 10.6856C7.07704 10.9083 7.67276 10.9383 8.22745 10.7706C8.78215 10.6029 9.2614 10.2478 9.58337 9.76597C9.90534 9.28415 10.05 8.70549 9.99276 8.12883C9.93548 7.55218 9.67978 7.01329 9.26932 6.60422C9.00766 6.34272 8.69128 6.1425 8.34295 6.01795C7.99463 5.89341 7.62302 5.84764 7.25488 5.88396C6.88675 5.92027 6.53124 6.03775 6.21396 6.22794C5.89667 6.41814 5.62551 6.67632 5.41998 6.98389C5.21445 7.29146 5.07967 7.64078 5.02535 8.00669C4.97103 8.3726 4.99851 8.74601 5.10582 9.10002C5.21313 9.45404 5.3976 9.77986 5.64595 10.054C5.89429 10.3282 6.20034 10.5439 6.54205 10.6856ZM4.77409 5.64763C5.13206 5.28965 5.55704 5.0057 6.02475 4.81196C6.49246 4.61823 6.99375 4.51852 7.5 4.51852C8.00625 4.51852 8.50754 4.61823 8.97525 4.81196C9.44296 5.0057 9.86794 5.28965 10.2259 5.64763C10.5839 6.0056 10.8678 6.43057 11.0616 6.89828C11.2553 7.366 11.355 7.86729 11.355 8.37354C11.355 8.87978 11.2553 9.38107 11.0616 9.84879C10.8678 10.3165 10.5839 10.7415 10.2259 11.0994C9.50295 11.8224 8.52241 12.2286 7.5 12.2286C6.47759 12.2286 5.49705 11.8224 4.77409 11.0994C4.05113 10.3765 3.64498 9.39595 3.64498 8.37354C3.64498 7.35112 4.05113 6.37058 4.77409 5.64763ZM12.21 5.09263C12.2987 5.00895 12.3697 4.90832 12.4188 4.7967C12.468 4.68508 12.4942 4.56474 12.496 4.44281C12.4977 4.32087 12.475 4.19982 12.4292 4.08681C12.3833 3.97381 12.3153 3.87116 12.2291 3.78493C12.1428 3.69869 12.0402 3.63064 11.9272 3.5848C11.8142 3.53895 11.6931 3.51625 11.5712 3.51802C11.4492 3.5198 11.3289 3.54603 11.2173 3.59515C11.1057 3.64427 11.005 3.71528 10.9214 3.80399C10.7586 3.97651 10.6695 4.20566 10.673 4.44281C10.6764 4.67995 10.7722 4.90641 10.9399 5.07411C11.1076 5.24181 11.334 5.33755 11.5712 5.34101C11.8083 5.34447 12.0375 5.25537 12.21 5.09263Z" fill="#1EA0E9"/>
</svg>
