<svg width="50" height="69" viewBox="0 0 50 69" fill="none" xmlns="http://www.w3.org/2000/svg">
<path fill-rule="evenodd" clip-rule="evenodd" d="M27.0022 0.91452C39.8732 1.91025 50 12.4217 50 25.2431C50 26.0597 49.9584 26.8668 49.8784 27.6628H48.159H43.4629H26.8711V22.068H43.3434C41.9188 14.1677 35.2695 8.02564 27.0024 7.16267V0.914695L27.0022 0.91452ZM48.1324 34.5119C44.6351 42.8209 36.579 48.8314 27.0022 49.5723V43.3243C32.976 42.7008 38.1054 39.32 41.0289 34.5119H48.1324ZM23.6201 49.6134C16.8356 49.2531 10.771 46.2521 6.48598 41.6442V68.8735H3.972C2.60925 68.8735 1.27951 68.7254 0 68.4446V25.243C0 12.2158 10.4555 1.57309 23.6199 0.873535V7.10715C13.977 7.79654 6.37278 15.6528 6.37278 25.2431L6.48598 27.2476C7.45907 35.9079 14.6584 42.7388 23.6201 43.3795V49.6134Z" fill="white"/>
</svg>
